<?xml version="1.0" encoding="utf-8"?>
<!-- Generator: Adobe Illustrator 23.0.2, SVG Export Plug-In . SVG Version: 6.00 Build 0)  -->
<svg version="1.1" id="Layer_1" xmlns="http://www.w3.org/2000/svg" xmlns:xlink="http://www.w3.org/1999/xlink" x="0px" y="0px"
	 viewBox="0 0 56.6 100" style="enable-background:new 0 0 56.6 100;" xml:space="preserve">
<style type="text/css">
	.st0{fill:#0046A1;}
</style>
<g>
	<path class="st0" d="M0.1,50C0.1,34.8,0.1,19.6,0,4.4C0,1.1,1,0,4.4,0c15.9,0.1,31.9,0.1,47.8,0c3.2,0,4.5,0.8,4.5,4.3
		c-0.1,30.5-0.1,61.1-0.1,91.6c0,4.4-1.1,5.1-4.9,2.9c-7-4-14-8.1-20.9-12.2c-1.8-1.1-3.1-1.1-4.9,0c-6.8,4.1-13.7,8.1-20.6,12
		c-4.3,2.5-5.3,1.9-5.3-2.9C0.1,80.4,0.1,65.2,0.1,50z"/>
</g>
</svg>
