<?xml version="1.0" encoding="utf-8"?>
<!-- Generator: Adobe Illustrator 23.0.2, SVG Export Plug-In . SVG Version: 6.00 Build 0)  -->
<svg version="1.1" id="Layer_1" xmlns="http://www.w3.org/2000/svg" xmlns:xlink="http://www.w3.org/1999/xlink" x="0px" y="0px"
	 viewBox="0 0 99.8 55" style="enable-background:new 0 0 99.8 55;" xml:space="preserve">
<style type="text/css">
	.st0{fill:#FF5F67;}
</style>
<g>
	<g id="XMLID_1_">
		<g>
			<path class="st0" d="M98.3,25.8c3.2,1.7,0.8,3.1-1.6,4.5c-14,7.7-28,15.4-42,23.1c-1.3,0.7-2.5,1.6-4.6,1.6
				c-1.9,0.1-3.1-0.6-4.3-1.3c-14.5-8-29-16-43.6-24c-2.2-1.2-3.1-2.4-0.9-3.8c2.5-1.5,4.9-1,7.3,0.3c12.5,6.9,25.2,13.7,37.5,20.7
				c3.3,1.9,4.9,1.5,7.8-0.1c12-6.7,24.2-13.3,36.3-20C92.6,25.5,95.1,24.1,98.3,25.8z"/>
		</g>
	</g>
</g>
<g>
	<g id="XMLID_2_">
		<g>
			<path class="st0" d="M98.3,0.8c3.2,1.7,0.8,3.1-1.6,4.5c-14,7.7-28,15.4-42,23.1c-1.3,0.7-2.5,1.6-4.6,1.6
				c-1.9,0.1-3.1-0.6-4.3-1.3c-14.5-8-29-16-43.6-24C0,3.5-0.9,2.3,1.3,0.9c2.5-1.5,4.9-1,7.3,0.3c12.5,6.9,25.2,13.7,37.5,20.7
				c3.3,1.9,4.9,1.5,7.8-0.1c12-6.7,24.2-13.3,36.3-20C92.6,0.5,95.1-0.9,98.3,0.8z"/>
		</g>
	</g>
</g>
</svg>
