<?xml version="1.0" encoding="utf-8"?>
<!-- Generator: Adobe Illustrator 23.0.2, SVG Export Plug-In . SVG Version: 6.00 Build 0)  -->
<svg version="1.1" id="Layer_1" xmlns="http://www.w3.org/2000/svg" xmlns:xlink="http://www.w3.org/1999/xlink" x="0px" y="0px"
	 viewBox="0 0 100 100" style="enable-background:new 0 0 100 100;" xml:space="preserve">
<style type="text/css">
	.st0{fill:#010101;}
	.st1{fill:#E43941;}
	.st2{fill:#FEFEFE;}
</style>
<g>
	<g id="XMLID_1_">
		<g>
			<path class="st0" d="M99.9,37.3c0,0.1,0,0.3,0,0.4C99.9,37.5,99.9,37.4,99.9,37.3z"/>
			<path class="st1" d="M99.9,37.3c0,0.1,0,0.3,0,0.4c-0.2,0.9-1.7,1.8-3.1,2.6c-14,7.7-28,15.4-42,23.1c-1.3,0.7-2.5,1.6-4.6,1.6
				c-1.9,0.1-3.1-0.6-4.3-1.3c-14.5-8-29-16-43.6-24c-1.3-0.7-2.2-1.4-2.2-2.2c0-0.5,0.4-1,1.3-1.6c2.5-1.5,4.9-1,7.3,0.3
				c12.5,6.9,25.2,13.7,37.5,20.7c3.3,1.9,4.9,1.5,7.8-0.1c12-6.8,24.2-13.4,36.3-20.1c2.4-1.3,4.8-2.7,8.1-1
				C99.3,36.3,99.8,36.8,99.9,37.3z"/>
			<path class="st2" d="M2.2,39.7c14.6,8,29.1,16,43.6,24c1.2,0.7,2.4,1.3,4.3,1.3c2.1,0,3.3-0.9,4.6-1.6c14-7.7,28-15.4,42-23.1
				c1.5-0.8,2.9-1.6,3.1-2.6c0,4.3,0,8.5,0,12.8c0,16.5-0.1,33,0.1,49.5c-33.3-0.1-66.7-0.1-100,0c0.1-20.8,0.1-41.7,0.1-62.5h0
				C0.1,38.2,0.9,39,2.2,39.7z"/>
			<path class="st2" d="M1.4,35.9c-0.9,0.5-1.3,1.1-1.3,1.6h0C0.1,25,0,12.5,0,0c33.3,0.1,66.7,0.1,100,0
				c-0.1,12.4-0.1,24.9-0.1,37.3c-0.1-0.5-0.6-1-1.5-1.5c-3.3-1.7-5.7-0.3-8.1,1C78.2,43.5,65.9,50.1,54,56.8
				c-2.9,1.6-4.5,2-7.8,0.1c-12.3-7-25-13.8-37.5-20.7C6.3,34.9,3.8,34.4,1.4,35.9z"/>
		</g>
		<g>
		</g>
	</g>
</g>
</svg>
