<?xml version="1.0" encoding="utf-8"?>
<!-- Generator: Adobe Illustrator 23.0.2, SVG Export Plug-In . SVG Version: 6.00 Build 0)  -->
<svg version="1.1" id="Layer_1" xmlns="http://www.w3.org/2000/svg" xmlns:xlink="http://www.w3.org/1999/xlink" x="0px" y="0px"
	 viewBox="0 0 100 100" style="enable-background:new 0 0 100 100;" xml:space="preserve">
<style type="text/css">
	.st0{fill:#FEFEFE;}
	.st1{fill:#010101;}
</style>
<g>
	<path class="st0" d="M99.9,50.5c0,15.5-0.1,31,0.1,46.4c0,2.5-0.6,3.1-3.1,3.1c-31.3-0.1-62.6-0.1-93.9,0C0.6,100,0,99.4,0,96.9
		C0.1,65.6,0.1,34.4,0,3.1C0,0.6,0.6,0,3.1,0c31.3,0.1,62.6,0.1,93.9,0c2.5,0,3.1,0.6,3.1,3.1C99.9,18.9,99.9,34.7,99.9,50.5z"/>
	<path class="st1" d="M50.2,64.9c-1.9,0.1-3.1-0.6-4.3-1.3c-14.5-8-29-16-43.6-24c-2.2-1.2-3.1-2.5-0.9-3.8c2.5-1.5,5-1,7.3,0.3
		c12.5,6.9,25.2,13.7,37.5,20.7c3.2,1.9,4.9,1.5,7.8-0.1c12-6.8,24.2-13.4,36.3-20.1c2.4-1.3,4.8-2.7,8.1-1c3.2,1.7,0.8,3.1-1.6,4.5
		c-14,7.7-28,15.4-42,23.1C53.5,64.1,52.3,64.9,50.2,64.9z"/>
</g>
</svg>
