<?xml version="1.0" encoding="utf-8"?>
<!-- Generator: Adobe Illustrator 23.0.2, SVG Export Plug-In . SVG Version: 6.00 Build 0)  -->
<svg version="1.1" id="Layer_1" xmlns="http://www.w3.org/2000/svg" xmlns:xlink="http://www.w3.org/1999/xlink" x="0px" y="0px"
	 viewBox="0 0 30 30" style="enable-background:new 0 0 30 30;" xml:space="preserve">
<style type="text/css">
	.st0{fill:#4167B2;}
</style>
<path class="st0" d="M30,1.7v26.7c0,0.9-0.7,1.7-1.7,1.7h-7.6V18.4h3.9l0.6-4.5h-4.5V11c0-1.3,0.4-2.2,2.2-2.2h2.4V4.7
	c-0.4-0.1-1.8-0.2-3.5-0.2c-3.5,0-5.8,2.1-5.8,6v3.3h-3.9v4.5H16V30H1.7C0.7,30,0,29.3,0,28.3V1.7C0,0.7,0.7,0,1.7,0h26.7
	C29.3,0,30,0.7,30,1.7z"/>
</svg>
