<?xml version="1.0" encoding="utf-8"?>
<!-- Generator: Adobe Illustrator 23.0.2, SVG Export Plug-In . SVG Version: 6.00 Build 0)  -->
<svg version="1.1" id="Layer_1" xmlns="http://www.w3.org/2000/svg" xmlns:xlink="http://www.w3.org/1999/xlink" x="0px" y="0px"
	 viewBox="0 0 850 850" style="enable-background:new 0 0 850 850;" xml:space="preserve">
<style type="text/css">
	.st0{fill:#FFFFFF;}
</style>
<g>
	<path d="M124.7,209.9L124.7,209.9c-9-13.6-5.4-32.2,8.4-41.2l15.4-10.2c13.6-9,32.2-5.4,41.2,8.4l0,0c9,13.6,5.4,32.2-8.4,41.2
		l-15.4,10.2C152.3,227.3,133.9,223.5,124.7,209.9z"/>
	<path d="M164.8,153.6c-5.6,0-11.4,1.6-16.4,5l-15.4,10.2c-13.6,9-17.4,27.4-8.4,41.2l0,0c5.8,8.6,15.2,13.4,24.8,13.4
		c5.6,0,11.4-1.6,16.4-5l15.4-10.2c13.6-9,17.4-27.4,8.4-41.2l0,0C184,158.4,174.4,153.6,164.8,153.6L164.8,153.6z"/>
</g>
<g>
	<path class="st0" d="M177,247.7c-9.6,0-18.2-6.4-20.8-15.6l-3-9.8c-1.6-5.6-1-11.4,1.8-16.6s7.4-8.8,13-10.4l20.2-6h0.2
		c0.2,0,0.6,0.2,0.6,0.6l8.8,30c1.6,5.6,1,11.4-1.8,16.6c-2.8,5.2-7.4,8.8-13,10.4C181.2,247.5,179,247.7,177,247.7L177,247.7z"/>
	<path d="M185.4,195.3l7.6,25.8c1.2,4.2,0.8,8.8-1.4,12.8c-2.2,4-5.6,6.8-10,8c-1.6,0.4-3.2,0.6-4.8,0.6c-7.4,0-14-5-16-12l-3-9.8
		c-1.2-4.2-0.8-8.8,1.4-12.8c2.2-4,5.6-6.8,10-8L185.4,195.3 M188.2,184.4c-0.6,0-1,0-1.6,0.2l-20.2,6c-14.2,4.2-22.2,19-18,33.2
		l3,9.8c3.4,11.6,14,19.2,25.6,19.2c2.6,0,5-0.4,7.6-1.2c14.2-4.2,22.2-19,18-33.2l-8.8-30C193,186,190.8,184.4,188.2,184.4
		L188.2,184.4z"/>
</g>
<g>
	<path class="st0" d="M138.5,184c-5,0-10-1.8-13.8-5l-8-6.6c-9.2-7.6-10.6-21.4-3-30.6c4.2-5,10.2-7.8,16.8-7.8c5,0,10,1.8,13.8,5
		l24.2,20c0.4,0.2,0.4,0.6,0,1l-13.4,16.2C151.1,181.2,144.9,184,138.5,184z"/>
	<path d="M130.5,139L130.5,139c4,0,7.6,1.4,10.6,3.8l20.8,17.2l-10.6,12.8c-3.2,3.8-7.8,6-13,6c-4,0-7.6-1.4-10.6-3.8l-8-6.6
		c-7.2-5.8-8.2-16.4-2.2-23.6C120.9,141.2,125.5,139,130.5,139 M130.5,129c-7.6,0-15.4,3.4-20.6,9.8l0,0
		c-9.4,11.4-7.8,28.2,3.6,37.6l8,6.6c5,4.2,11,6.2,17,6.2c7.6,0,15.4-3.4,20.6-9.8l13.4-16.2c2-2.4,1.6-6-0.8-8l-24.2-20
		C142.7,131,136.5,129,130.5,129L130.5,129z"/>
</g>
</svg>
