<?xml version="1.0" encoding="utf-8"?>
<!-- Generator: Adobe Illustrator 23.0.2, SVG Export Plug-In . SVG Version: 6.00 Build 0)  -->
<svg version="1.1" id="Layer_1" xmlns="http://www.w3.org/2000/svg" xmlns:xlink="http://www.w3.org/1999/xlink" x="0px" y="0px"
	 viewBox="0 0 850 850" style="enable-background:new 0 0 850 850;" xml:space="preserve">
<style type="text/css">
	.st0{fill:#63A27E;}
	.st1{fill:#4B795F;}
	.st2{fill:none;stroke:#000000;stroke-width:30;}
	.st3{fill:none;stroke:#000000;stroke-width:30;stroke-linecap:round;}
</style>
<g id="XMLID_2_">
	<g>
		<g id="XMLID_1_">
			<g>
				<path class="st0" d="M425,430l200,99c0,0.7,0,1.3,0,2c0,110.5-89.5,200-200,200s-200-89.5-200-200c0-0.7,0-1.3,0-2V331L425,430z
					"/>
				<polygon class="st1" points="625,129 625,529 425,430 425,129.5 425,129 				"/>
				<polygon class="st1" points="425,129.5 425,430 225,331 225,129 425,129 				"/>
			</g>
			<g>
				<path class="st2" d="M627,530c0.2,111.5-91.4,203-202,203c-109.5,0-200.5-89.7-202-200"/>
				<polyline class="st2" points="223,129 223,533 223,534 				"/>
				<line class="st2" x1="627" y1="129" x2="627" y2="530"/>
				<polyline class="st3" points="425,129.5 425,430 425,479.5 				"/>
				<path class="st3" d="M90,117c223.3,0,446.7,0,670,0"/>
				<path class="st3" d="M21.1,187.9C44,164.3,67,140.7,89.9,117.1"/>
				<path class="st3" d="M828.9,187.9c-22.9-23.6-45.8-47.2-68.8-70.8"/>
			</g>
		</g>
	</g>
</g>
</svg>
