<?xml version="1.0" encoding="utf-8"?>
<!-- Generator: Adobe Illustrator 23.0.2, SVG Export Plug-In . SVG Version: 6.00 Build 0)  -->
<svg version="1.1" id="Layer_1" xmlns="http://www.w3.org/2000/svg" xmlns:xlink="http://www.w3.org/1999/xlink" x="0px" y="0px"
	 viewBox="0 0 610 610" style="enable-background:new 0 0 610 610;" xml:space="preserve">
<style type="text/css">
	.st0{fill:#E43941;}
	.st1{fill:#FF5F67;}
	.st2{fill:#FFFFFF;}
	.st3{fill:none;stroke:#FFFFFF;stroke-width:30;stroke-linecap:round;}
	.st4{fill:none;stroke:#FFFFFF;stroke-width:30;stroke-linecap:round;stroke-miterlimit:10;}
</style>
<g id="XMLID_1_">
	<g>
		<polygon class="st0" points="505,0 505,400 105,202 105,0 		"/>
		<path class="st1" d="M505,402c0,110.5-89.5,200-200,200s-200-89.5-200-200c0-0.7,0-1.3,0-2l0,0V202l400,198l0,0
			C505,400.7,505,401.3,505,402z"/>
	</g>
</g>
<g>
	<path class="st2" d="M454,49c0,20.7,0,235.8,0,280"/>
	<path class="st3" d="M454,49c0,20.7,0,235.8,0,280"/>
</g>
<path class="st4" d="M453.7,409.4c-1.2,10.4-3.4,24.9-7.8,41.3c-1.8,6.9-3.7,12.9-5.5,18.1"/>
</svg>
