<?xml version="1.0" encoding="utf-8"?>
<!-- Generator: Adobe Illustrator 23.0.2, SVG Export Plug-In . SVG Version: 6.00 Build 0)  -->
<svg version="1.1" id="Layer_1" xmlns="http://www.w3.org/2000/svg" xmlns:xlink="http://www.w3.org/1999/xlink" x="0px" y="0px"
	 viewBox="0 0 850 850" style="enable-background:new 0 0 850 850;" xml:space="preserve">
<style type="text/css">
	.st0{fill:#FFFFFF;}
	.st1{fill:none;stroke:#000000;stroke-width:30;}
	.st2{fill:none;stroke:#000000;stroke-width:30;stroke-linecap:round;}
	.st3{fill:none;stroke:#000000;stroke-width:8;}
</style>
<g>
	<g id="XMLID_2_">
		<g>
			<path class="st0" d="M425,421l200,99c0,0.7,0,1.3,0,2c0,110.5-89.5,200-200,200s-200-89.5-200-200c0-0.7,0-1.3,0-2V322L425,421z"
				/>
			<polygon class="st0" points="625,120 625,520 425,421 425,120.5 425,120 			"/>
			<polygon class="st0" points="425,120.5 425,421 225,322 225,120 425,120 			"/>
		</g>
		<g>
			<path class="st1" d="M627,521c0.2,111.5-91.4,203-202,203c-109.5,0-200.5-89.7-202-200"/>
			<polyline class="st1" points="223,120 223,524 223,525 			"/>
			<line class="st1" x1="627" y1="120" x2="627" y2="521"/>
			<polyline class="st2" points="425,120.5 425,421 425,470.5 			"/>
		</g>
	</g>
</g>
<g>
	<g>
		<path class="st2" d="M90,108c223.3,0,446.7,0,670,0"/>
		<path class="st2" d="M21.1,178.9c22.9-23.6,45.8-47.2,68.8-70.8"/>
	</g>
	<path class="st2" d="M828.9,178.9c-22.9-23.6-45.8-47.2-68.8-70.8"/>
</g>
<path class="st3" d="M627,521c-73.3-37.8-335.9-166.3-402-199"/>
</svg>
