<?xml version="1.0" encoding="utf-8"?>
<!-- Generator: Adobe Illustrator 23.0.2, SVG Export Plug-In . SVG Version: 6.00 Build 0)  -->
<svg version="1.1" id="Layer_1" xmlns="http://www.w3.org/2000/svg" xmlns:xlink="http://www.w3.org/1999/xlink" x="0px" y="0px"
	 viewBox="0 0 850 850" style="enable-background:new 0 0 850 850;" xml:space="preserve">
<style type="text/css">
	.st0{fill:#FFFFFF;}
	.st1{fill:none;stroke:#FFFFFF;stroke-miterlimit:10;}
	.st2{fill:none;stroke:#FFFFFF;stroke-width:30;}
	.st3{fill:none;stroke:#FFFFFF;stroke-width:30;stroke-linecap:round;}
	.st4{fill:none;stroke:#FFFFFF;stroke-width:8;}
</style>
<g id="XMLID_1_">
	<g>
		<path class="st0" d="M425,421v-0.6c81,39.9,162.6,80.3,200,99.5v0L425,421z"/>
		<path class="st0" d="M233.6,326.3c37.6,18.5,114.2,56.1,191.4,94.2v0.6L233.6,326.3z"/>
		<path class="st0" d="M231.8,325.3l-3.5-1.7C229.4,324.2,230.5,324.7,231.8,325.3z"/>
	</g>
	<g>
		<path class="st1" d="M625,520c0,0.7,0,1.3,0,2c0,110.5-89.5,200-200,200s-200-89.5-200-200c0-0.7,0-1.3,0-2V322"/>
		<polyline class="st1" points="425,120 625,120 625,520 625,520 425,421 		"/>
		<polyline class="st1" points="225,322 225,120 425,120 425,120.5 		"/>
		<line class="st1" x1="231.8" y1="325.3" x2="228.2" y2="323.6"/>
		<line class="st1" x1="425" y1="421" x2="233.6" y2="326.3"/>
		<path class="st2" d="M627,521c0.2,111.5-91.4,203-202,203c-109.5,0-200.5-89.7-202-200"/>
		<polyline class="st2" points="223,120 223,524 223,525 		"/>
		<line class="st2" x1="627" y1="120" x2="627" y2="521"/>
		<polyline class="st3" points="425,120.5 425,420.4 425,421 425,470.5 		"/>
		<path class="st3" d="M90,108c223.3,0,446.7,0,670,0"/>
		<path class="st3" d="M21.1,178.9c22.9-23.6,45.8-47.2,68.8-70.8"/>
		<path class="st3" d="M828.9,178.9c-22.9-23.6-45.8-47.2-68.8-70.8"/>
		<path class="st4" d="M627,521c-0.7-0.3-1.3-0.7-2-1c-37.4-19.2-119-59.6-200-99.5c-77.2-38-153.8-75.6-191.4-94.2
			c-0.6-0.3-1.3-0.6-1.9-0.9c-1.2-0.6-2.4-1.2-3.5-1.7c-1.1-0.6-2.2-1.1-3.2-1.6"/>
	</g>
</g>
</svg>
