<?xml version="1.0" encoding="utf-8"?>
<!-- Generator: Adobe Illustrator 23.0.2, SVG Export Plug-In . SVG Version: 6.00 Build 0)  -->
<svg version="1.1" id="Layer_1" xmlns="http://www.w3.org/2000/svg" xmlns:xlink="http://www.w3.org/1999/xlink" x="0px" y="0px"
	 viewBox="0 0 850 850" style="enable-background:new 0 0 850 850;" xml:space="preserve">
<style type="text/css">
	.st0{fill:#E43941;}
	.st1{fill:#FF5F67;}
	.st2{fill:none;stroke:#000000;stroke-width:30;}
	.st3{fill:none;stroke:#000000;stroke-width:30;stroke-linecap:round;}
</style>
<g>
	<g id="XMLID_1_">
		<g>
			<polygon class="st0" points="625,120 625,520 225,322 225,120 			"/>
			<path class="st1" d="M625,522c0,110.5-89.5,200-200,200s-200-89.5-200-200c0-0.7,0-1.3,0-2l0,0V322l400,198l0,0
				C625,520.7,625,521.3,625,522z"/>
		</g>
	</g>
	<path class="st2" d="M627,521c0.2,111.5-91.4,203-202,203c-109.5,0-200.5-89.7-202-200"/>
	<line class="st2" x1="223" y1="120" x2="223" y2="525"/>
	<line class="st2" x1="627" y1="120" x2="627" y2="521"/>
	<line class="st3" x1="425" y1="120.5" x2="425" y2="470.5"/>
</g>
<g>
	<g>
		<path class="st3" d="M90,108c223.3,0,446.7,0,670,0"/>
		<path class="st3" d="M21.1,178.9c22.9-23.6,45.8-47.2,68.8-70.8"/>
	</g>
	<path class="st3" d="M828.9,178.9c-22.9-23.6-45.8-47.2-68.8-70.8"/>
</g>
</svg>
