<?xml version="1.0" encoding="UTF-8"?>
<svg xmlns="http://www.w3.org/2000/svg" xmlns:xlink="http://www.w3.org/1999/xlink" width="144pt" height="144pt" viewBox="0 0 144 144" version="1.1">
<g id="surface558662">
<path style=" stroke:none;fill-rule:nonzero;fill:rgb(80%,80%,80%);fill-opacity:1;" d="M 72 0 C 32.226562 0 0 32.226562 0 72 C 0 111.773438 32.226562 144 72 144 C 111.773438 144 144 111.773438 144 72 C 144 32.226562 111.773438 0 72 0 Z M 72 12 C 105.140625 12 132 38.859375 132 72 C 132 105.140625 105.140625 132 72 132 C 38.859375 132 12 105.140625 12 72 C 12 38.859375 38.859375 12 72 12 Z M 72 34.875 C 70.898438 34.875 69.984375 34.851562 69 35.0625 C 68.015625 35.273438 67.101562 35.8125 66.375 36.375 C 65.648438 36.9375 65.109375 37.710938 64.6875 38.625 C 64.265625 39.539062 64.125 40.617188 64.125 42 C 64.125 43.359375 64.265625 44.4375 64.6875 45.375 C 65.109375 46.3125 65.648438 47.0625 66.375 47.625 C 67.101562 48.1875 68.015625 48.515625 69 48.75 C 69.984375 48.984375 70.898438 49.125 72 49.125 C 73.078125 49.125 74.226562 48.984375 75.1875 48.75 C 76.148438 48.515625 76.898438 48.1875 77.625 47.625 C 78.351562 47.0625 78.890625 46.3125 79.3125 45.375 C 79.734375 44.460938 80.0625 43.359375 80.0625 42 C 80.0625 40.617188 79.734375 39.539062 79.3125 38.625 C 78.890625 37.710938 78.351562 36.9375 77.625 36.375 C 76.898438 35.8125 76.148438 35.273438 75.1875 35.0625 C 74.226562 34.851562 73.078125 34.875 72 34.875 Z M 64.6875 54.9375 L 64.6875 108.75 L 79.3125 108.75 L 79.3125 54.9375 Z M 64.6875 54.9375 "/>
</g>
</svg>
