<?xml version="1.0" encoding="utf-8"?>
<!-- Generator: Adobe Illustrator 23.0.2, SVG Export Plug-In . SVG Version: 6.00 Build 0)  -->
<svg version="1.1" id="Layer_1" xmlns="http://www.w3.org/2000/svg" xmlns:xlink="http://www.w3.org/1999/xlink" x="0px" y="0px"
	 viewBox="0 0 144 144" style="enable-background:new 0 0 144 144;" xml:space="preserve">
<style type="text/css">
	.st0{fill:#CCCCCC;}
</style>
<g id="surface558662">
	<path class="st0" d="M74.4,0C32.7-1.3-1.3,32.7,0,74.4c1.2,37.7,31.9,68.4,69.6,69.6c41.6,1.3,75.6-32.7,74.3-74.3
		C142.8,31.9,112.1,1.2,74.4,0z M70,12c34.7-1.1,63,27.2,61.9,61.9c-1,31.4-26.6,57-58,58c-34.7,1.1-63-27.2-61.9-61.9
		C13,38.6,38.6,13,70,12z M64.7,62.5v38.8c0,4.1,3.3,7.5,7.5,7.5h0.3c3.8,0,6.8-3.1,6.8-6.8V62c0-3.9-3.2-7.1-7.1-7.1h0
		C68.1,54.9,64.7,58.3,64.7,62.5z"/>
</g>
<circle class="st0" cx="71.6" cy="41.5" r="7.6"/>
</svg>
