<?xml version="1.0" encoding="utf-8"?>
<!-- Generator: Adobe Illustrator 23.0.2, SVG Export Plug-In . SVG Version: 6.00 Build 0)  -->
<svg version="1.1" id="Layer_1" xmlns="http://www.w3.org/2000/svg" xmlns:xlink="http://www.w3.org/1999/xlink" x="0px" y="0px"
	 viewBox="0 0 612 612" style="enable-background:new 0 0 612 612;" xml:space="preserve">
<style type="text/css">
	.st0{fill:#E43941;}
	.st1{fill:#FF5F67;}
	.st2{opacity:0.1;}
</style>
<g id="XMLID_1_">
	<g>
		<polygon class="st0" points="506,5 506,405 106,207 106,5 		"/>
		<path class="st1" d="M506,407c0,110.5-89.5,200-200,200s-200-89.5-200-200c0-0.7,0-1.3,0-2l0,0V207l400,198l0,0
			C506,405.7,506,406.3,506,407z"/>
	</g>
</g>
<g class="st2">
	<path d="M190.3,416.8c0-0.7,0-1.3,0-2V211.9V5H106v202v198c0,0.7,0,1.3,0,2c0,110.5,89.5,200,200,200c4,0,7.9-0.1,11.9-0.4
		C243,576.1,190.3,502.7,190.3,416.8z"/>
	<path d="M317.9,606.6"/>
</g>
</svg>
