<?xml version="1.0" encoding="utf-8"?>
<!-- Generator: Adobe Illustrator 23.0.2, SVG Export Plug-In . SVG Version: 6.00 Build 0)  -->
<svg version="1.1" id="Layer_1" xmlns="http://www.w3.org/2000/svg" xmlns:xlink="http://www.w3.org/1999/xlink" x="0px" y="0px"
	 viewBox="0 0 2560 600" style="enable-background:new 0 0 2560 600;" xml:space="preserve">
<style type="text/css">
	.st0{fill:#343A40;stroke:#000000;stroke-miterlimit:10;}
</style>
<polygon class="st0" points="1072.5,599.5 980.5,561.5 963.5,533.5 870.5,492.5 876.5,464.5 836.5,428.5 860.5,391.5 785.5,311.5 
	721.5,285.5 706.5,215.5 691.5,151.5 698.5,134.5 656.5,97.5 622.5,104.5 557.5,52.5 573.5,-1.5 0.5,-1.5 0.5,603.5 "/>
<polygon class="st0" points="1550.5,599.5 1569.5,567.5 1672.5,560.5 1678.5,534.5 1731.5,515.5 1735.5,470.5 1789.5,408.5 
	1741.5,336.5 1841.5,267.5 1841.5,224.5 1909.5,199.5 1929.5,156.5 1949.5,83.5 2063.5,-0.5 2560.5,-0.5 2560.5,599.5 "/>
</svg>
