<?xml version="1.0" encoding="utf-8"?>
<!-- Generator: Adobe Illustrator 23.0.2, SVG Export Plug-In . SVG Version: 6.00 Build 0)  -->
<svg version="1.1" id="Layer_1" xmlns="http://www.w3.org/2000/svg" xmlns:xlink="http://www.w3.org/1999/xlink" x="0px" y="0px"
	 viewBox="0 0 100 100" style="enable-background:new 0 0 100 100;" xml:space="preserve">
<title>home, house, default, building</title>
<g>
	<path d="M97.8,36.8L58.9,5.7c-5.2-4.2-12.6-4.2-17.7,0L2.2,36.8c-1.4,1.1-1.6,3.1-0.5,4.5c1.1,1.4,3.1,1.6,4.5,0.5c0,0,0,0,0,0
		l38.9-31.1c2.8-2.3,6.9-2.3,9.7,0l38.9,31.1c1.4,1.1,3.4,0.9,4.5-0.5C99.4,39.9,99.2,37.9,97.8,36.8z"/>
	<path d="M82.1,45.3c-1.8,0-3.2,1.4-3.2,3.2c0,0,0,0,0,0v34.8c0,4.3-3.5,7.8-7.8,7.8H28.9c-4.3,0-7.8-3.5-7.8-7.8V48.5
		c0-1.8-1.4-3.2-3.2-3.2c-1.8,0-3.2,1.4-3.2,3.2c0,0,0,0,0,0v34.8c0,7.8,6.4,14.2,14.2,14.2h42.1c7.8,0,14.2-6.4,14.2-14.2V48.5
		C85.3,46.7,83.8,45.3,82.1,45.3C82.1,45.3,82.1,45.3,82.1,45.3z"/>
</g>
</svg>
