<?xml version="1.0" encoding="utf-8"?>
<!-- Generator: Adobe Illustrator 23.0.2, SVG Export Plug-In . SVG Version: 6.00 Build 0)  -->
<svg version="1.1" id="Layer_1" xmlns="http://www.w3.org/2000/svg" xmlns:xlink="http://www.w3.org/1999/xlink" x="0px" y="0px"
	 viewBox="0 0 100 100" style="enable-background:new 0 0 100 100;" xml:space="preserve">
<title>Artboard 9</title>
<path d="M32.2,1H14.4C7,1,1,7,1,14.4v17.8c0,7.4,6,13.4,13.4,13.4h17.8c7.4,0,13.4-6,13.4-13.4V14.4C45.5,7,39.6,1,32.2,1z
	 M36.6,32.2c0,2.5-2,4.5-4.5,4.5H14.4c-2.5,0-4.5-2-4.5-4.5V14.4c0-2.5,2-4.5,4.5-4.5h17.8c2.5,0,4.5,2,4.5,4.5V32.2z"/>
<path d="M85.6,1H67.8c-7.4,0-13.4,6-13.4,13.4v17.8c0,7.4,6,13.4,13.4,13.4h17.8c7.4,0,13.4-6,13.4-13.4V14.4C99,7,93,1,85.6,1z
	 M90.1,32.2c0,2.5-2,4.5-4.5,4.5H67.8c-2.5,0-4.5-2-4.5-4.5V14.4c0-2.5,2-4.5,4.5-4.5h17.8c2.5,0,4.5,2,4.5,4.5V32.2z"/>
<path d="M85.6,54.5H67.8c-7.4,0-13.4,6-13.4,13.4v17.8c0,7.4,6,13.4,13.4,13.4h17.8C93,99,99,93,99,85.6V67.8
	C99,60.4,93,54.5,85.6,54.5z M90.1,85.6c0,2.5-2,4.5-4.5,4.5H67.8c-2.5,0-4.5-2-4.5-4.5V67.8c0-2.5,2-4.5,4.5-4.5h17.8
	c2.5,0,4.5,2,4.5,4.5V85.6z"/>
<path d="M32.2,54.5H14.4C7,54.5,1,60.4,1,67.8v17.8C1,93,7,99,14.4,99h17.8c7.4,0,13.4-6,13.4-13.4V67.8
	C45.5,60.4,39.6,54.5,32.2,54.5z M36.6,85.6c0,2.5-2,4.5-4.5,4.5H14.4c-2.5,0-4.5-2-4.5-4.5V67.8c0-2.5,2-4.5,4.5-4.5h17.8
	c2.5,0,4.5,2,4.5,4.5V85.6z"/>
</svg>
