<?xml version="1.0" encoding="utf-8"?>
<!-- Generator: Adobe Illustrator 23.0.2, SVG Export Plug-In . SVG Version: 6.00 Build 0)  -->
<svg version="1.1" id="Layer_1" xmlns="http://www.w3.org/2000/svg" xmlns:xlink="http://www.w3.org/1999/xlink" x="0px" y="0px"
	 viewBox="0 0 100 100" style="enable-background:new 0 0 100 100;" xml:space="preserve">
<path d="M19.8,96.6c0.7,0.5,1.5,0.8,2.4,0.8c0.7,0,1.5-0.2,2.1-0.6L50,80.9l25.8,15.9c1.4,0.9,3.2,0.8,4.5-0.2
	c1.3-1,1.9-2.6,1.5-4.2l-7.4-29.2l23.4-19.8c1.2-1.1,1.7-2.8,1.2-4.3s-1.9-2.6-3.6-2.7L65,34.6L53.7,6.1c-0.6-1.5-2.1-2.5-3.7-2.5
	s-3.1,1-3.7,2.5L35,34.6L4.6,36.4c-1.6,0.1-3,1.2-3.6,2.7s0,3.3,1.2,4.3l23.4,19.8l-7.4,29.2C17.8,94,18.4,95.7,19.8,96.6z
	 M15.1,43.8L38,42.4c1.5-0.1,2.9-1.1,3.5-2.5L50,18.4l8.6,21.5c0.6,1.4,1.9,2.4,3.5,2.5l22.9,1.4L67.3,58.7c-1.2,1-1.7,2.6-1.3,4
	l5.6,22.1l-19.5-12c-1.3-0.8-2.9-0.8-4.2,0l-19.5,12L34,62.7c0.4-1.5-0.1-3-1.3-4L15.1,43.8z"/>
</svg>
